# xmcd
#
# Track frame offsets:
#	150
#	10365
#	23998
#	36384
#	51654
#	66260
#	78678
#	91553
#	103302
#	115334
#	127906
#	141124
#	155350
#	168166
#	183237
#	199275
#	212569
#	226297
#	247882
#	264705
#	275416
#	291337
#
# Disc length: 4027 seconds
#
# Revision: 0
# Processed by: cddbd v1.5.1PL0 Copyright (c) Steve Scherf et al.
# Submitted via: dBpowerAMP V4.0
#
DISCID=420fb916
DTITLE=Solomon Burke - King Solomon/I Wish I Knew
DYEAR=1900
DGENRE=Soul
TTITLE0=It's Been A chance
TTITLE1=Take Me (As I Am)
TTITLE2=Time is a Thief
TTITLE3=Keep a Light in the Window
TTITLE4=Baby, Come on Home
TTITLE5=Detroit City
TTITLE6=Someone is Watching
TTITLE7=Party People
TTITLE8=When She Touches Me
TTITLE9=Women, How Do You Make Me Love You Like You Do
TTITLE10=It's Just a Matter of Time
TTITLE11=Present for Christmas
TTITLE12=I Wish I knew
TTITLE13=Get Out of My Like Women
TTITLE14=Meet Me in the Church
TTITLE15=By the Time I Get to Phoenix
TTITLE16=Then You Can Tell Me Goodbye
TTITLE17=What'd I Say
TTITLE18=Since I Met Toy Baby
TTITLE19=Save It
TTITLE20=Shame on Me
TTITLE21=Why, Why, Why
EXTD=Koch reissue of King Solomon and I Wish I Knew
EXTT0=
EXTT1=
EXTT2=
EXTT3=
EXTT4=
EXTT5=
EXTT6=
EXTT7=
EXTT8=
EXTT9=
EXTT10=
EXTT11=
EXTT12=
EXTT13=
EXTT14=
EXTT15=
EXTT16=
EXTT17=
EXTT18=
EXTT19=
EXTT20=
EXTT21=
PLAYORDER=
